Coordinates
version=1
nRows=14
nColumns=24
inDegrees=yes

Units are S.I. units (second, meters, Newtons, ...)
Angles are in degrees.

endheader
time	pelvis_tilt	pelvis_list	pelvis_rotation	pelvis_tx	pelvis_ty	pelvis_tz	hip_flexion_r	hip_adduction_r	hip_rotation_r	knee_angle_r	ankle_angle_r	subtalar_angle_r	mtp_angle_r	hip_flexion_l	hip_adduction_l	hip_rotation_l	knee_angle_l	ankle_angle_l	subtalar_angle_l	mtp_angle_l	lumbar_extension	lumbar_bending	lumbar_rotation
      4.02000000	    -12.03363682	     -0.53280554	     -3.74076023	      0.14938488	     -0.00397208	      0.02741258	      5.58340270	      4.95622034	      7.34227386	     -4.91649562	      0.31098639	      1.00691473	      9.30875412	     34.94659723	     -9.14944572	    -15.98166247	    -48.15778357	     -9.91591139	      6.39693132	     20.09368182	     11.34318092	      0.84137513	      7.43598471
      4.02500000	    -11.98182469	     -0.41029226	     -3.99737163	      0.15462051	     -0.00440081	      0.02771535	      5.21728592	      4.83920703	      7.60187301	     -4.93660751	      0.54408944	      1.00904158	      9.46169832	     35.08750146	     -9.07850994	    -16.41252926	    -46.95688431	     -9.56188314	      6.06020038	     19.29703068	     11.22302712	      0.74010935	      7.74222241
      4.03000000	    -12.08149989	     -0.26183597	     -4.13636500	      0.15995772	     -0.00500269	      0.02787727	      5.01403587	      4.68630931	      7.79008824	     -4.96467486	      0.80127294	      0.98174800	      9.54754099	     35.39054004	     -8.89982241	    -16.67513319	    -45.66389960	     -9.36806011	      5.78096060	     18.89152214	     11.28615653	      0.58419576	      7.87537326
      4.03500000	    -12.03924113	     -0.14932376	     -4.38068647	      0.16517214	     -0.00548266	      0.02809773	      4.67464237	      4.56822057	      8.04207314	     -5.01023500	      1.04349518	      1.00719527	      9.69299087	     35.50598883	     -8.82150349	    -17.10918769	    -44.37887715	     -9.07317291	      5.51679939	     18.19028386	     11.16923917	      0.49552760	      8.16514122
      4.04000000	    -12.08151292	     -0.02602101	     -4.54716532	      0.17046216	     -0.00607072	      0.02822923	      4.42249993	      4.43265818	      8.24278085	     -5.05616169	      1.29877727	      1.01460402	      9.80921993	     35.70478566	     -8.67747787	    -17.43399593	    -43.03166169	     -8.85857585	      5.34892177	     17.68720241	     11.15658461	      0.37395168	      8.34356515
      4.04500000	    -12.10366691	      0.08036860	     -4.71902697	      0.17573566	     -0.00665482	      0.02834632	      4.15186948	      4.30995531	      8.43347347	     -5.10628687	      1.54785541	      1.05251423	      9.92446156	     35.86200568	     -8.54925455	    -17.76657890	    -41.65219251	     -8.65437072	      5.26620491	     17.21261930	     11.11584505	      0.27085288	      8.52695816
      4.05000000	    -12.12704207	      0.17746065	     -4.87846012	      0.18101551	     -0.00725821	      0.02842749	      3.88231554	      4.19141901	      8.60449898	     -5.15653241	      1.79580127	      1.11069797	     10.03769911	     36.00340055	     -8.41593659	    -18.08440529	    -40.23752325	     -8.47796493	      5.25863642	     16.77740638	     11.07469834	      0.17407645	      8.69458694
      4.05500000	    -12.15606459	      0.26484777	     -5.02877044	      0.18630164	     -0.00788414	      0.02848020	      3.61925741	      4.07884662	      8.75463388	     -5.20832316	      2.04149665	      1.19189278	     10.14970314	     36.13382978	     -8.28062446	    -18.39280926	    -38.78939100	     -8.34011068	      5.32012247	     16.38940514	     11.03794893	      0.08504913	      8.84860961
      4.06000000	    -12.19423537	      0.34372411	     -5.16619039	      0.19161061	     -0.00854462	      0.02850603	      3.36483926	      3.97242094	      8.87676522	     -5.26130009	      2.29014419	      1.28843080	     10.26153796	     36.25729744	     -8.14166862	    -18.69956248	    -37.31038907	     -8.23902156	      5.44476617	     16.05622669	     11.01228909	      0.00199127	      8.98415337
      4.06500000	    -12.23125208	      0.41799986	     -5.30247600	      0.19690570	     -0.00919215	      0.02850618	      3.11161724	      3.86491325	      8.98815227	     -5.31416123	      2.52000722	      1.42431362	     10.38105148	     36.36097052	     -7.99645834	    -18.99099183	    -35.79686864	     -8.20740181	      5.64880683	     15.75472806	     10.98013247	     -0.07725806	      9.11508870
      4.07000000	    -12.26338671	      0.48935218	     -5.43007325	      0.20221614	     -0.00986591	      0.02848055	      2.85612969	      3.75759459	      9.06667022	     -5.37496037	      2.76434784	      1.58018325	     10.52286929	     36.44142180	     -7.83790170	    -19.26672449	    -34.25406596	     -8.20876348	      5.90992752	     15.50397416	     10.94366561	     -0.15654624	      9.25394833
      4.07500000	    -12.34970570	      0.54504359	     -5.51627911	      0.20751193	     -0.01060307	      0.02837625	      2.66366468	      3.66807153	      9.12332021	     -5.44656675	      2.98222138	      1.69551245	     10.63932287	     36.58127695	     -7.67085443	    -19.52120902	    -32.69440958	     -8.31102062	      6.22219222	     15.33070230	     10.95391255	     -0.21908838	      9.31724036
      4.08000000	    -12.37517422	      0.62501343	     -5.66494382	      0.21286732	     -0.01126148	      0.02835330	      2.40643255	      3.54503238	      9.17539658	     -5.51296775	      3.21342145	      1.93858143	     10.82226282	     36.60397225	     -7.49985140	    -19.82719052	    -31.08057353	     -8.45456700	      6.56436150	     15.22350105	     10.91733459	     -0.30584934	      9.48479480
      4.08500000	    -12.43342252	      0.70053420	     -5.76710597	      0.21821537	     -0.01196630	      0.02825902	      2.19034535	      3.42643563	      9.18933523	     -5.59119699	      3.43065975	      2.14765986	     11.01517610	     36.66104017	     -7.30120919	    -20.09801160	    -29.44758902	     -8.69762910	      6.94533412	     15.21436456	     10.90775590	     -0.39398015	      9.58440207
